HIERARCHY
ROOT mixamorig:Hips
{
	OFFSET 0.000000 77.627144 7.190781
	CHANNELS 6 Xposition Yposition Zposition Zrotation Yrotation Xrotation 
	JOINT mixamorig:Spine
	{
		OFFSET -0.000000 14.685710 -1.734714
		CHANNELS 3 Zrotation Yrotation Xrotation
		JOINT mixamorig:Spine1
		{
			OFFSET 0.000000 17.133330 -2.023833
			CHANNELS 3 Zrotation Yrotation Xrotation
			JOINT mixamorig:Spine2
			{
				OFFSET 0.000000 19.580952 -2.312953
				CHANNELS 3 Zrotation Yrotation Xrotation
				JOINT mixamorig:Neck
				{
					OFFSET 0.000000 22.028565 -2.602071
					CHANNELS 3 Zrotation Yrotation Xrotation
					JOINT mixamorig:Head
					{
						OFFSET -0.000000 7.772296 1.167654
						CHANNELS 3 Zrotation Yrotation Xrotation
						JOINT mixamorig:HeadTop_End
						{
							OFFSET 0.000000 26.518158 3.983897
							CHANNELS 3 Zrotation Yrotation Xrotation
							End Site
							{
								OFFSET 0.000000 0.000000 0.000000
							}
						}
					}
				}
				JOINT mixamorig:LeftShoulder
				{
					OFFSET 11.646637 18.513367 -2.583829
					CHANNELS 3 Zrotation Yrotation Xrotation
					JOINT mixamorig:LeftArm
					{
						OFFSET 23.494797 -6.787740 0.036483
						CHANNELS 3 Zrotation Yrotation Xrotation
						JOINT mixamorig:LeftForeArm
						{
							OFFSET 22.628841 -2.236462 0.895561
							CHANNELS 3 Zrotation Yrotation Xrotation
							JOINT mixamorig:LeftHand
							{
								OFFSET 32.235813 0.214079 0.341628
								CHANNELS 3 Zrotation Yrotation Xrotation
								JOINT mixamorig:LeftHandThumb1
								{
									OFFSET 4.043732 -2.301453 4.675424
									CHANNELS 3 Zrotation Yrotation Xrotation
									JOINT mixamorig:LeftHandThumb2
									{
										OFFSET 3.235001 -1.841141 3.740334
										CHANNELS 3 Zrotation Yrotation Xrotation
										JOINT mixamorig:LeftHandThumb3
										{
											OFFSET 4.136284 -1.355438 2.884997
											CHANNELS 3 Zrotation Yrotation Xrotation
											JOINT mixamorig:LeftHandThumb4
											{
												OFFSET 3.443222 -1.440781 1.895251
												CHANNELS 3 Zrotation Yrotation Xrotation
												End Site
												{
													OFFSET 0.000000 0.000000 0.000000
												}
											}
										}
									}
								}
								JOINT mixamorig:LeftHandIndex1
								{
									OFFSET 12.534279 0.552322 5.370454
									CHANNELS 3 Zrotation Yrotation Xrotation
									JOINT mixamorig:LeftHandIndex2
									{
										OFFSET 4.462021 -0.042068 -0.222766
										CHANNELS 3 Zrotation Yrotation Xrotation
										JOINT mixamorig:LeftHandIndex3
										{
											OFFSET 4.426414 -0.140015 -0.221126
											CHANNELS 3 Zrotation Yrotation Xrotation
											JOINT mixamorig:LeftHandIndex4
											{
												OFFSET 3.584976 -0.033737 -0.180877
												CHANNELS 3 Zrotation Yrotation Xrotation
												End Site
												{
													OFFSET 0.000000 0.000000 0.000000
												}
											}
										}
									}
								}
								JOINT mixamorig:LeftHandMiddle1
								{
									OFFSET 12.067444 0.830978 1.411757
									CHANNELS 3 Zrotation Yrotation Xrotation
									JOINT mixamorig:LeftHandMiddle2
									{
										OFFSET 5.488625 0.110443 -0.140360
										CHANNELS 3 Zrotation Yrotation Xrotation
										JOINT mixamorig:LeftHandMiddle3
										{
											OFFSET 5.193268 -0.285706 -0.132956
											CHANNELS 3 Zrotation Yrotation Xrotation
											JOINT mixamorig:LeftHandMiddle4
											{
												OFFSET 4.443779 -0.316895 -0.113542
												CHANNELS 3 Zrotation Yrotation Xrotation
												End Site
												{
													OFFSET 0.000000 0.000000 0.000000
												}
											}
										}
									}
								}
								JOINT mixamorig:LeftHandRing1
								{
									OFFSET 12.202324 0.602158 -2.428782
									CHANNELS 3 Zrotation Yrotation Xrotation
									JOINT mixamorig:LeftHandRing2
									{
										OFFSET 4.681709 0.293594 -0.070412
										CHANNELS 3 Zrotation Yrotation Xrotation
										JOINT mixamorig:LeftHandRing3
										{
											OFFSET 4.517784 0.001785 -0.067170
											CHANNELS 3 Zrotation Yrotation Xrotation
											JOINT mixamorig:LeftHandRing4
											{
												OFFSET 3.536186 -0.473984 -0.050865
												CHANNELS 3 Zrotation Yrotation Xrotation
												End Site
												{
													OFFSET 0.000000 0.000000 0.000000
												}
											}
										}
									}
								}
								JOINT mixamorig:LeftHandPinky1
								{
									OFFSET 11.261032 -0.021225 -5.740205
									CHANNELS 3 Zrotation Yrotation Xrotation
									JOINT mixamorig:LeftHandPinky2
									{
										OFFSET 4.446136 0.226913 -0.056313
										CHANNELS 3 Zrotation Yrotation Xrotation
										JOINT mixamorig:LeftHandPinky3
										{
											OFFSET 3.536148 0.035980 -0.044635
											CHANNELS 3 Zrotation Yrotation Xrotation
											JOINT mixamorig:LeftHandPinky4
											{
												OFFSET 2.822449 0.069366 -0.035670
												CHANNELS 3 Zrotation Yrotation Xrotation
												End Site
												{
													OFFSET 0.000000 0.000000 0.000000
												}
											}
										}
									}
								}
							}
						}
					}
				}
				JOINT mixamorig:RightShoulder
				{
					OFFSET -11.646637 18.513371 -2.620312
					CHANNELS 3 Zrotation Yrotation Xrotation
					JOINT mixamorig:RightArm
					{
						OFFSET -23.494804 -6.787738 -0.036485
						CHANNELS 3 Zrotation Yrotation Xrotation
						JOINT mixamorig:RightForeArm
						{
							OFFSET -22.628826 -2.236484 0.960591
							CHANNELS 3 Zrotation Yrotation Xrotation
							JOINT mixamorig:RightHand
							{
								OFFSET -32.235806 0.214097 0.317908
								CHANNELS 3 Zrotation Yrotation Xrotation
								JOINT mixamorig:RightHandThumb1
								{
									OFFSET -4.056908 -2.304855 4.721249
									CHANNELS 3 Zrotation Yrotation Xrotation
									JOINT mixamorig:RightHandThumb2
									{
										OFFSET -3.245529 -1.843887 3.777003
										CHANNELS 3 Zrotation Yrotation Xrotation
										JOINT mixamorig:RightHandThumb3
										{
											OFFSET -4.153908 -1.359879 2.907515
											CHANNELS 3 Zrotation Yrotation Xrotation
											JOINT mixamorig:RightHandThumb4
											{
												OFFSET -3.491310 -1.375549 1.529044
												CHANNELS 3 Zrotation Yrotation Xrotation
												End Site
												{
													OFFSET 0.000000 0.000000 0.000000
												}
											}
										}
									}
								}
								JOINT mixamorig:RightHandIndex1
								{
									OFFSET -12.331047 0.757294 5.317495
									CHANNELS 3 Zrotation Yrotation Xrotation
									JOINT mixamorig:RightHandIndex2
									{
										OFFSET -4.758568 -0.224289 -0.035605
										CHANNELS 3 Zrotation Yrotation Xrotation
										JOINT mixamorig:RightHandIndex3
										{
											OFFSET -4.415932 -0.181503 -0.033052
											CHANNELS 3 Zrotation Yrotation Xrotation
											JOINT mixamorig:RightHandIndex4
											{
												OFFSET -3.678474 0.414856 -0.027373
												CHANNELS 3 Zrotation Yrotation Xrotation
												End Site
												{
													OFFSET 0.000000 0.000000 0.000000
												}
											}
										}
									}
								}
								JOINT mixamorig:RightHandMiddle1
								{
									OFFSET -12.051239 0.663742 1.548264
									CHANNELS 3 Zrotation Yrotation Xrotation
									JOINT mixamorig:RightHandMiddle2
									{
										OFFSET -5.374817 0.301971 -0.166537
										CHANNELS 3 Zrotation Yrotation Xrotation
										JOINT mixamorig:RightHandMiddle3
										{
											OFFSET -5.310471 -0.301758 -0.164593
											CHANNELS 3 Zrotation Yrotation Xrotation
											JOINT mixamorig:RightHandMiddle4
											{
												OFFSET -4.485832 -0.342514 -0.139207
												CHANNELS 3 Zrotation Yrotation Xrotation
												End Site
												{
													OFFSET 0.000000 0.000000 0.000000
												}
											}
										}
									}
								}
								JOINT mixamorig:RightHandRing1
								{
									OFFSET -12.195183 0.742325 -2.381488
									CHANNELS 3 Zrotation Yrotation Xrotation
									JOINT mixamorig:RightHandRing2
									{
										OFFSET -4.583191 0.034424 -0.012763
										CHANNELS 3 Zrotation Yrotation Xrotation
										JOINT mixamorig:RightHandRing3
										{
											OFFSET -4.612793 0.026199 -0.012632
											CHANNELS 3 Zrotation Yrotation Xrotation
											JOINT mixamorig:RightHandRing4
											{
												OFFSET -3.314957 -0.541855 -0.006643
												CHANNELS 3 Zrotation Yrotation Xrotation
												End Site
												{
													OFFSET 0.000000 0.000000 0.000000
												}
											}
										}
									}
								}
								JOINT mixamorig:RightHandPinky1
								{
									OFFSET -11.332825 -0.054398 -5.574547
									CHANNELS 3 Zrotation Yrotation Xrotation
									JOINT mixamorig:RightHandPinky2
									{
										OFFSET -4.462639 0.300003 -0.206312
										CHANNELS 3 Zrotation Yrotation Xrotation
										JOINT mixamorig:RightHandPinky3
										{
											OFFSET -3.493774 0.049591 -0.161451
											CHANNELS 3 Zrotation Yrotation Xrotation
											JOINT mixamorig:RightHandPinky4
											{
												OFFSET -2.793701 0.056946 -0.129098
												CHANNELS 3 Zrotation Yrotation Xrotation
												End Site
												{
													OFFSET 0.000000 0.000000 0.000000
												}
											}
										}
									}
								}
							}
						}
					}
				}
			}
		}
	}
	JOINT mixamorig:LeftUpLeg
	{
		OFFSET 13.580879 -8.149223 -1.796077
		CHANNELS 3 Zrotation Yrotation Xrotation
		JOINT mixamorig:LeftLeg
		{
			OFFSET 3.676140 -35.802426 -2.676070
			CHANNELS 3 Zrotation Yrotation Xrotation
			JOINT mixamorig:LeftFoot
			{
				OFFSET -0.369089 -26.709162 -2.057140
				CHANNELS 3 Zrotation Yrotation Xrotation
				JOINT mixamorig:LeftToeBase
				{
					OFFSET -1.192477 -6.581660 13.403662
					CHANNELS 3 Zrotation Yrotation Xrotation
					JOINT mixamorig:LeftToe_End
					{
						OFFSET -0.351336 -0.163913 5.937977
						CHANNELS 3 Zrotation Yrotation Xrotation
						End Site
						{
							OFFSET 0.000000 0.000000 0.000000
						}
					}
				}
			}
		}
	}
	JOINT mixamorig:RightUpLeg
	{
		OFFSET -13.580879 -8.149225 -2.255285
		CHANNELS 3 Zrotation Yrotation Xrotation
		JOINT mixamorig:RightLeg
		{
			OFFSET -3.676141 -35.802427 -2.316821
			CHANNELS 3 Zrotation Yrotation Xrotation
			JOINT mixamorig:RightFoot
			{
				OFFSET 0.369060 -26.709041 -2.090143
				CHANNELS 3 Zrotation Yrotation Xrotation
				JOINT mixamorig:RightToeBase
				{
					OFFSET 1.192393 -6.582436 13.372205
					CHANNELS 3 Zrotation Yrotation Xrotation
					JOINT mixamorig:RightToe_End
					{
						OFFSET 0.351307 -0.164255 5.913618
						CHANNELS 3 Zrotation Yrotation Xrotation
						End Site
						{
							OFFSET 0.000000 0.000000 0.000000
						}
					}
				}
			}
		}
	}
}
MOTION
Frames: 4
Frame Time: 0.016667
3.178678 77.481354 11.062518 -7.869845 -4.994419 0.938334 1.226393 -4.964227 3.423543 0.391685 -0.346276 2.514639 0.361138 -0.321622 2.501585 8.881052 -4.454106 0.506136 3.566124 -12.575554 -7.011087 0.000000 0.000000 0.000000 -4.592346 -33.824424 1.944753 -4.678713 -57.671439 2.408502 23.622033 -71.574514 -30.823336 -15.166380 -7.162852 17.978983 10.617561 2.777887 2.210487 -37.624679 34.524437 1.815750 15.797622 47.010638 -9.381690 -0.000001 -0.000000 -0.000004 -74.382111 2.411466 6.913031 -81.331122 0.919806 -5.582531 -97.244729 0.054453 -6.434452 0.000001 -0.000000 0.000004 -71.416907 -0.580396 1.783419 -103.178250 1.482516 -5.416533 -71.291847 2.209243 -3.390889 0.000002 0.000000 -0.000001 -79.538056 -2.096045 1.812855 -90.583952 2.201400 -4.154735 -52.238000 2.533707 -1.835718 0.000002 -0.000000 0.000002 -83.599156 0.868825 -6.730786 -52.496192 2.257582 -1.925596 -81.993884 2.397930 -3.434164 0.000000 -0.000002 0.000000 -12.648298 3.038389 -23.650624 -14.700100 15.607946 -24.504050 6.518803 24.029242 0.857960 -25.750203 -7.729176 -38.705860 -9.700087 -0.195306 1.232963 12.863277 -24.743698 1.984841 -22.602984 -27.249787 -9.384568 0.000004 -0.000003 -0.000000 45.540954 2.695846 9.138882 83.058065 -1.298716 -1.782559 104.913746 -0.873593 -2.391179 -0.000001 -0.000000 -0.000001 73.816005 2.740676 4.108481 100.983230 0.925972 -3.182137 42.710796 -0.349705 -1.464658 0.000000 -0.000001 -0.000002 89.511100 2.440692 3.578940 86.152700 -1.271199 -1.502941 31.841701 -1.008851 -0.280306 0.000005 0.000001 -0.000001 98.244300 3.638374 -3.863244 48.524533 0.072992 -2.394705 53.712502 0.242312 -2.576300 -0.000001 0.000001 -0.000000 14.927172 14.481216 -17.260163 4.599443 9.041423 28.738255 3.226114 0.646878 -1.820322 -0.875848 -0.036842 -3.612165 -0.000001 -0.000001 -0.000001 -8.070529 -16.978543 -39.429821 -11.925088 -7.395512 62.023565 6.137419 -19.890441 18.090869 -0.000014 -0.000025 3.854634 0.000001 0.000001 0.000001 
1.822863 77.720863 11.395692 -7.010826 -3.942033 1.310429 -0.283153 -5.016103 2.615701 0.213128 -0.359205 1.925227 0.189206 -0.339031 1.910223 10.368774 -4.835429 0.698461 2.545230 -12.419276 -4.743218 0.000000 0.000000 0.000000 -6.389503 -34.064215 2.132118 -4.118328 -56.343124 4.486124 25.361260 -71.726138 -32.548083 -15.625531 -7.113142 14.576851 10.617562 2.777888 2.210488 -37.624672 34.524430 1.815746 15.797631 47.010627 -9.381689 0.000000 0.000000 0.000000 -74.382118 2.411467 6.913021 -81.331109 0.919817 -5.582528 -97.244723 0.054447 -6.434428 0.000000 0.000000 -0.000002 -71.416893 -0.580392 1.783423 -103.178230 1.482507 -5.416526 -71.291874 2.209241 -3.390892 0.000001 0.000000 0.000000 -79.538029 -2.096045 1.812860 -90.583925 2.201390 -4.154739 -52.237993 2.533712 -1.835727 0.000001 -0.000000 0.000001 -83.599163 0.868824 -6.730776 -52.496189 2.257574 -1.925606 -81.993870 2.397930 -3.434165 0.000001 -0.000001 -0.000002 -12.048493 0.007459 -23.274274 -15.565493 27.394519 -11.569583 6.353870 4.789263 0.090943 -18.185023 0.610369 -41.000360 -9.700081 -0.195300 1.232964 12.863266 -24.743685 1.984817 -22.602996 -27.249788 -9.384565 -0.000000 0.000003 -0.000003 45.540961 2.695847 9.138889 83.058051 -1.298718 -1.782573 104.913745 -0.873593 -2.391203 0.000000 -0.000001 -0.000001 73.816025 2.740665 4.108467 100.983210 0.925969 -3.182124 42.710796 -0.349719 -1.464659 -0.000001 -0.000001 -0.000001 89.511114 2.440679 3.578938 86.152700 -1.271218 -1.502920 31.841697 -1.008862 -0.280306 0.000000 -0.000003 -0.000003 98.244286 3.638356 -3.863236 48.524536 0.073027 -2.394732 53.712503 0.242276 -2.576300 -0.000002 -0.000002 0.000000 12.283091 15.451426 -19.086421 4.177888 7.480371 32.516785 0.345907 0.187682 -3.027547 -0.000009 0.000014 -2.373600 -0.000002 0.000000 0.000000 -8.772531 -13.633164 -32.268782 -9.366093 -8.516493 48.684304 8.226441 -17.797600 21.303802 -0.000018 0.000008 2.290516 -0.000000 0.000001 -0.000002 
0.475293 77.641663 11.724242 -5.972675 -2.841617 1.657207 -1.802607 -5.097101 1.900652 0.095279 -0.376454 1.419965 0.077200 -0.358567 1.403756 11.427756 -5.089937 0.669316 1.639675 -12.175613 -2.713964 0.000000 -0.000002 0.000000 -7.929133 -34.162600 2.241836 -3.118248 -54.917399 5.757465 27.036095 -72.086197 -34.391906 -16.272320 -7.067568 11.442634 10.617558 2.777865 2.210493 -37.624688 34.524440 1.815740 15.797643 47.010644 -9.381680 -0.000001 -0.000003 -0.000003 -74.382118 2.411468 6.913039 -81.331102 0.919824 -5.582532 -97.244717 0.054460 -6.434428 0.000000 0.000000 -0.000002 -71.416921 -0.580391 1.783422 -103.178243 1.482512 -5.416529 -71.291867 2.209250 -3.390888 0.000001 -0.000000 0.000002 -79.538035 -2.096046 1.812850 -90.583946 2.201395 -4.154739 -52.237997 2.533709 -1.835731 -0.000002 -0.000000 -0.000003 -83.599142 0.868824 -6.730764 -52.496195 2.257574 -1.925603 -81.993877 2.397931 -3.434163 -0.000003 0.000001 -0.000000 -11.679170 -2.990730 -23.027933 -12.045178 35.549628 1.905524 6.373461 -5.842587 -0.307018 -11.949171 7.348870 -35.019464 -9.700089 -0.195293 1.232971 12.863258 -24.743694 1.984830 -22.603006 -27.249775 -9.384563 0.000000 -0.000003 -0.000004 45.540958 2.695854 9.138887 83.058017 -1.298717 -1.782581 104.913745 -0.873595 -2.391191 0.000001 0.000000 -0.000001 73.816025 2.740677 4.108473 100.983217 0.925942 -3.182108 42.710803 -0.349692 -1.464665 0.000001 -0.000002 -0.000000 89.511121 2.440678 3.578941 86.152721 -1.271219 -1.502914 31.841690 -1.008837 -0.280302 0.000001 -0.000004 -0.000000 98.244279 3.638349 -3.863244 48.524509 0.073014 -2.394698 53.712508 0.242299 -2.576307 0.000003 0.000002 -0.000001 9.242864 15.970808 -20.279090 3.498518 6.005114 35.326334 -2.530561 0.256343 -4.519076 -0.000002 -0.000000 -2.403269 -0.000001 -0.000001 0.000000 -9.389456 -10.443492 -24.957172 -6.192843 -8.203621 34.931903 9.002451 -15.697201 23.262429 -0.000008 -0.000009 -0.957598 0.000002 -0.000003 0.000002 
-0.797904 77.338989 12.024655 -5.058779 -1.687282 1.916566 -2.971337 -5.214572 1.334768 0.060462 -0.394610 1.065353 0.046070 -0.379256 1.049181 11.948296 -5.156923 0.468138 0.923936 -11.780570 -1.133153 0.000000 0.000002 0.000000 -9.250617 -34.223260 2.198483 -2.557548 -53.169991 6.854564 28.263959 -72.417939 -35.881163 -17.028962 -7.004768 9.144300 10.617563 2.777877 2.210482 -37.624687 34.524445 1.815730 15.797647 47.010645 -9.381677 -0.000003 -0.000000 -0.000005 -74.382118 2.411461 6.913037 -81.331109 0.919800 -5.582534 -97.244702 0.054457 -6.434455 0.000000 0.000000 -0.000002 -71.416914 -0.580402 1.783411 -103.178202 1.482511 -5.416526 -71.291841 2.209233 -3.390905 0.000001 -0.000001 -0.000000 -79.538035 -2.096045 1.812852 -90.583946 2.201405 -4.154735 -52.237966 2.533706 -1.835724 -0.000000 0.000001 -0.000001 -83.599163 0.868819 -6.730774 -52.496189 2.257584 -1.925596 -81.993883 2.397926 -3.434148 -0.000001 -0.000001 -0.000002 -11.665376 -5.741154 -23.012230 -7.376212 38.014567 14.027557 6.371228 -5.835706 -0.306681 -6.303668 10.888515 -22.445688 -9.700085 -0.195295 1.232974 12.863280 -24.743696 1.984817 -22.602998 -27.249783 -9.384575 0.000002 -0.000001 -0.000005 45.540961 2.695855 9.138879 83.058058 -1.298725 -1.782579 104.913738 -0.873607 -2.391203 0.000003 0.000000 0.000000 73.816019 2.740664 4.108462 100.983217 0.925958 -3.182111 42.710793 -0.349722 -1.464665 -0.000001 -0.000004 0.000000 89.511114 2.440677 3.578947 86.152721 -1.271196 -1.502928 31.841707 -1.008873 -0.280301 0.000001 0.000004 -0.000001 98.244307 3.638361 -3.863257 48.524533 0.073014 -2.394708 53.712488 0.242309 -2.576309 0.000001 0.000002 0.000001 6.152242 15.895898 -20.711890 3.215305 5.317476 36.776135 -4.316711 1.134722 -6.366571 -0.000003 -0.000007 -2.592118 0.000000 0.000000 0.000000 -9.676013 -7.923690 -17.040935 -3.398505 -6.798209 20.479315 8.240718 -13.756790 24.043912 5.065261 0.479663 -12.394232 0.000001 -0.000001 0.000001 
